<mxfile host="app.diagrams.net" modified="2020-06-23T19:03:27.767Z" agent="5.0 (Windows NT 10.0; Win64; x64) AppleWebKit/537.36 (KHTML, like Gecko) Chrome/83.0.4103.116 Safari/537.36" etag="hfeCvrSBDR7LFIdVXkBI" version="13.3.1" type="github">
  <diagram id="l0Hb1Kvt9UqNzEm9A9QA" name="Page-1">
    <mxGraphModel dx="1422" dy="774" grid="1" gridSize="10" guides="1" tooltips="1" connect="1" arrows="1" fold="1" page="0" pageScale="1" pageWidth="827" pageHeight="1169" math="0" shadow="0">
      <root>
        <mxCell id="0" />
        <mxCell id="1" parent="0" />
        <mxCell id="ltwnF_Ncu5DMhvB-tiFt-2" value="libdivecomputer" style="swimlane;fillColor=#dae8fc;strokeColor=#6c8ebf;" vertex="1" parent="1">
          <mxGeometry x="80" y="120" width="700" height="240" as="geometry" />
        </mxCell>
        <mxCell id="ltwnF_Ncu5DMhvB-tiFt-8" value="dc_context_new" style="rounded=0;whiteSpace=wrap;html=1;" vertex="1" parent="ltwnF_Ncu5DMhvB-tiFt-2">
          <mxGeometry x="30" y="50" width="140" height="20" as="geometry" />
        </mxCell>
        <mxCell id="ltwnF_Ncu5DMhvB-tiFt-9" value="dc_context_set_logfunc" style="rounded=0;whiteSpace=wrap;html=1;" vertex="1" parent="ltwnF_Ncu5DMhvB-tiFt-2">
          <mxGeometry x="40" y="70" width="140" height="20" as="geometry" />
        </mxCell>
        <mxCell id="ltwnF_Ncu5DMhvB-tiFt-10" value="dc_context_set_loglevel" style="rounded=0;whiteSpace=wrap;html=1;" vertex="1" parent="ltwnF_Ncu5DMhvB-tiFt-2">
          <mxGeometry x="40" y="90" width="140" height="20" as="geometry" />
        </mxCell>
        <mxCell id="ltwnF_Ncu5DMhvB-tiFt-25" value="dc_device_t" style="rounded=0;whiteSpace=wrap;html=1;" vertex="1" parent="ltwnF_Ncu5DMhvB-tiFt-2">
          <mxGeometry x="370" y="50" width="140" height="20" as="geometry" />
        </mxCell>
        <mxCell id="ltwnF_Ncu5DMhvB-tiFt-3" value="shared" style="swimlane;fillColor=#dae8fc;strokeColor=#6c8ebf;" vertex="1" parent="1">
          <mxGeometry x="80" y="390" width="870" height="320" as="geometry" />
        </mxCell>
        <mxCell id="ltwnF_Ncu5DMhvB-tiFt-11" value="DCContext" style="rounded=0;whiteSpace=wrap;html=1;" vertex="1" parent="ltwnF_Ncu5DMhvB-tiFt-3">
          <mxGeometry x="20" y="50" width="210" height="20" as="geometry" />
        </mxCell>
        <mxCell id="ltwnF_Ncu5DMhvB-tiFt-13" value="getDevices(): Array&amp;lt;QDCDevice&amp;gt;" style="rounded=0;whiteSpace=wrap;html=1;" vertex="1" parent="ltwnF_Ncu5DMhvB-tiFt-3">
          <mxGeometry x="30" y="70" width="200" height="20" as="geometry" />
        </mxCell>
        <mxCell id="ltwnF_Ncu5DMhvB-tiFt-18" value="DCDevice" style="rounded=0;whiteSpace=wrap;html=1;" vertex="1" parent="ltwnF_Ncu5DMhvB-tiFt-3">
          <mxGeometry x="330" y="50" width="210" height="20" as="geometry" />
        </mxCell>
        <mxCell id="ltwnF_Ncu5DMhvB-tiFt-19" value="USB" style="rounded=0;whiteSpace=wrap;html=1;" vertex="1" parent="ltwnF_Ncu5DMhvB-tiFt-3">
          <mxGeometry x="360" y="90" width="180" height="20" as="geometry" />
        </mxCell>
        <mxCell id="ltwnF_Ncu5DMhvB-tiFt-23" value="const char* getVendorName()" style="rounded=0;whiteSpace=wrap;html=1;" vertex="1" parent="ltwnF_Ncu5DMhvB-tiFt-3">
          <mxGeometry x="350" y="210" width="190" height="20" as="geometry" />
        </mxCell>
        <mxCell id="ltwnF_Ncu5DMhvB-tiFt-24" value="unsigned int getModelNumber()" style="rounded=0;whiteSpace=wrap;html=1;" vertex="1" parent="ltwnF_Ncu5DMhvB-tiFt-3">
          <mxGeometry x="350" y="230" width="190" height="20" as="geometry" />
        </mxCell>
        <mxCell id="ltwnF_Ncu5DMhvB-tiFt-28" value="dc_family_t getFamilyType()" style="rounded=0;whiteSpace=wrap;html=1;" vertex="1" parent="ltwnF_Ncu5DMhvB-tiFt-3">
          <mxGeometry x="350" y="250" width="190" height="20" as="geometry" />
        </mxCell>
        <mxCell id="ltwnF_Ncu5DMhvB-tiFt-29" value="DCTransports getTransports()" style="rounded=0;whiteSpace=wrap;html=1;" vertex="1" parent="ltwnF_Ncu5DMhvB-tiFt-3">
          <mxGeometry x="350" y="270" width="190" height="20" as="geometry" />
        </mxCell>
        <mxCell id="ltwnF_Ncu5DMhvB-tiFt-30" value="const char* getProductName()" style="rounded=0;whiteSpace=wrap;html=1;" vertex="1" parent="ltwnF_Ncu5DMhvB-tiFt-3">
          <mxGeometry x="350" y="190" width="190" height="20" as="geometry" />
        </mxCell>
        <mxCell id="ltwnF_Ncu5DMhvB-tiFt-35" value="BLE" style="rounded=0;whiteSpace=wrap;html=1;" vertex="1" parent="ltwnF_Ncu5DMhvB-tiFt-3">
          <mxGeometry x="360" y="170" width="180" height="20" as="geometry" />
        </mxCell>
        <mxCell id="ltwnF_Ncu5DMhvB-tiFt-36" value="Bluetooth" style="rounded=0;whiteSpace=wrap;html=1;" vertex="1" parent="ltwnF_Ncu5DMhvB-tiFt-3">
          <mxGeometry x="360" y="150" width="180" height="20" as="geometry" />
        </mxCell>
        <mxCell id="ltwnF_Ncu5DMhvB-tiFt-37" value="Serial" style="rounded=0;whiteSpace=wrap;html=1;" vertex="1" parent="ltwnF_Ncu5DMhvB-tiFt-3">
          <mxGeometry x="360" y="130" width="180" height="20" as="geometry" />
        </mxCell>
        <mxCell id="ltwnF_Ncu5DMhvB-tiFt-38" value="USBHID" style="rounded=0;whiteSpace=wrap;html=1;" vertex="1" parent="ltwnF_Ncu5DMhvB-tiFt-3">
          <mxGeometry x="360" y="110" width="180" height="20" as="geometry" />
        </mxCell>
        <mxCell id="ltwnF_Ncu5DMhvB-tiFt-40" value="Transport" style="rounded=0;whiteSpace=wrap;html=1;" vertex="1" parent="ltwnF_Ncu5DMhvB-tiFt-3">
          <mxGeometry x="350" y="70" width="190" height="20" as="geometry" />
        </mxCell>
        <mxCell id="ltwnF_Ncu5DMhvB-tiFt-4" value="QT specific" style="swimlane;fillColor=#dae8fc;strokeColor=#6c8ebf;" vertex="1" parent="1">
          <mxGeometry x="80" y="820" width="700" height="240" as="geometry" />
        </mxCell>
        <mxCell id="ltwnF_Ncu5DMhvB-tiFt-5" value="QML" style="swimlane;fillColor=#dae8fc;strokeColor=#6c8ebf;" vertex="1" parent="1">
          <mxGeometry x="80" y="1110" width="700" height="240" as="geometry" />
        </mxCell>
        <mxCell id="ltwnF_Ncu5DMhvB-tiFt-14" style="edgeStyle=orthogonalEdgeStyle;rounded=0;orthogonalLoop=1;jettySize=auto;html=1;entryX=0;entryY=0.5;entryDx=0;entryDy=0;" edge="1" parent="1" source="ltwnF_Ncu5DMhvB-tiFt-11" target="ltwnF_Ncu5DMhvB-tiFt-8">
          <mxGeometry relative="1" as="geometry" />
        </mxCell>
        <mxCell id="ltwnF_Ncu5DMhvB-tiFt-26" style="edgeStyle=orthogonalEdgeStyle;rounded=0;orthogonalLoop=1;jettySize=auto;html=1;dashed=1;" edge="1" parent="1" source="ltwnF_Ncu5DMhvB-tiFt-18" target="ltwnF_Ncu5DMhvB-tiFt-25">
          <mxGeometry relative="1" as="geometry">
            <Array as="points">
              <mxPoint x="430" y="180" />
            </Array>
          </mxGeometry>
        </mxCell>
      </root>
    </mxGraphModel>
  </diagram>
</mxfile>
